# xmcd
#
# Track frame offsets:
# 150
# 7986
# 19586
# 35012
# 49056
# 61532
# 75423
# 89527
# 102907
# 116171
# 131785
# 156349
# 166354
# 176538
# 190217
#
# Disc length: 2767 seconds
#
#
# Revision: 1
# Processed by: cddbd v1.5.1PL2 Copyright (c) Steve Scherf et al.
# Submitted via: FreeRIP 2.944 
#
DISCID=ba0acd0f
DTITLE=Frank Sinatra - With A Song In My Heart
DYEAR=1900
DGENRE=Jazz
TTITLE0=It Had To Be You
TTITLE1=If Loveliness Were Music
TTITLE2=I've Had This Feeling Before
TTITLE3=My Heart Tells Me
TTITLE4=I Couldn't Sleep A Wink Last Night
TTITLE5=San Fernando Valley
TTITLE6=I'll Be Seeing You
TTITLE7=It Could Happen To You
TTITLE8=Amor
TTITLE9=I'll Walk Alone
TTITLE10=Porgy And Bess Medley
TTITLE11=Together
TTITLE12=The Trolley Song
TTITLE13=With A Song In My Heart
TTITLE14=Begin The Beguine
EXTD=
EXTT0=
EXTT1=
EXTT2=
EXTT3=
EXTT4=
EXTT5=
EXTT6=
EXTT7=
EXTT8=
EXTT9=
EXTT10=
EXTT11=
EXTT12=
EXTT13=
EXTT14=
PLAYORDER=
